<svg xmlns="http://www.w3.org/2000/svg" width="2048" height="2048" viewBox="0 0 2048 2048">
    <defs>
        <style>
            .animated-path {
                fill: #FFFFFF;
                stroke: #FFFFFF;
                stroke-width: 8;
                stroke-linecap: round;
                stroke-linejoin: round;
                stroke-dasharray: 15000;
                stroke-dashoffset: 15000;
                animation: drawPath 5s ease-in-out infinite;
            }

            @keyframes drawPath {
                0% {
                    stroke-dashoffset: 15000;
                    fill-opacity: 0;
                    stroke-opacity: 1;
                }
                50% {
                    stroke-dashoffset: 0;
                    fill-opacity: 0;
                    stroke-opacity: 1;
                }
                75% {
                    stroke-dashoffset: 0;
                    fill-opacity: 0.5;
                    stroke-opacity: 0.8;
                }
                100% {
                    stroke-dashoffset: 0;
                    fill-opacity: 1;
                    stroke-opacity: 0;
                }
            }
        </style>
    </defs>
    <g fill-rule="evenodd">
        <path class="animated-path" d="M1019 575 L1018 576 L993 576 L992 577 L981 577 L980 578 L972 578 L971 579 L964 579 L963 580 L957 580 L956 581 L950 581 L949 582 L945 582 L944 583 L939 583 L938 584 L934 584 L933 585 L929 585 L928 586 L925 586 L924 587 L921 587 L920 588 L917 588 L916 589 L913 589 L912 590 L909 590 L908 591 L905 591 L904 592 L902 592 L901 593 L898 593 L897 594 L895 594 L894 595 L892 595 L891 596 L888 596 L887 597 L885 597 L884 598 L882 598 L881 599 L879 599 L878 600 L876 600 L875 601 L874 601 L873 602 L871 602 L870 603 L868 603 L867 604 L865 604 L864 605 L863 605 L862 606 L860 606 L859 607 L858 607 L857 608 L856 608 L855 609 L854 609 L853 610 L851 610 L850 611 L849 611 L848 612 L846 612 L845 613 L844 613 L843 614 L842 614 L841 615 L840 615 L839 616 L837 616 L836 617 L835 617 L834 618 L833 618 L832 619 L831 619 L830 620 L829 620 L828 621 L827 621 L826 622 L825 622 L824 623 L823 623 L822 624 L821 624 L820 625 L819 625 L818 626 L817 626 L816 627 L815 627 L814 628 L813 628 L812 629 L811 629 L810 630 L809 630 L808 631 L807 631 L806 632 L805 632 L804 633 L803 633 L801 635 L800 635 L799 636 L798 636 L797 637 L796 637 L794 639 L793 639 L792 640 L791 640 L789 642 L788 642 L786 644 L785 644 L784 645 L783 645 L781 647 L780 647 L778 649 L777 649 L775 651 L774 651 L772 653 L771 653 L769 655 L768 655 L765 658 L764 658 L762 660 L761 660 L758 663 L757 663 L754 666 L753 666 L750 669 L749 669 L742 676 L741 676 L736 681 L735 681 L730 686 L729 686 L727 688 L726 688 L718 696 L717 696 L696 717 L696 718 L688 726 L688 727 L686 729 L686 730 L681 735 L681 736 L676 741 L676 742 L669 749 L669 750 L666 753 L666 754 L663 757 L663 758 L660 761 L660 762 L658 764 L658 765 L655 768 L655 769 L653 771 L653 772 L651 774 L651 775 L649 777 L649 778 L647 780 L647 781 L645 783 L645 784 L644 785 L644 786 L642 788 L642 789 L640 791 L640 792 L639 793 L639 794 L637 796 L637 797 L636 798 L636 799 L635 800 L635 801 L633 803 L633 804 L632 805 L632 806 L631 807 L631 808 L630 809 L630 810 L629 811 L629 812 L628 813 L628 814 L627 815 L627 816 L626 817 L626 818 L625 819 L625 820 L624 821 L624 822 L623 823 L623 824 L622 825 L622 826 L621 827 L621 828 L620 829 L620 830 L619 831 L619 832 L618 833 L618 834 L617 835 L617 836 L616 837 L616 839 L615 840 L615 841 L614 842 L614 843 L613 844 L613 845 L612 846 L612 848 L611 849 L611 850 L610 851 L610 853 L609 854 L609 855 L608 856 L608 857 L607 858 L607 859 L606 860 L606 862 L605 863 L605 864 L604 865 L604 867 L603 868 L603 870 L602 871 L602 873 L601 874 L601 875 L600 876 L600 878 L599 879 L599 881 L598 882 L598 884 L597 885 L597 887 L596 888 L596 891 L595 892 L595 894 L594 895 L594 897 L593 898 L593 901 L592 902 L592 904 L591 905 L591 908 L590 909 L590 912 L589 913 L589 916 L588 917 L588 920 L587 921 L587 924 L586 925 L586 928 L585 929 L585 933 L584 934 L584 938 L583 939 L583 944 L582 945 L582 949 L581 950 L581 956 L580 957 L580 963 L579 964 L579 971 L578 972 L578 980 L577 981 L577 992 L576 993 L576 1018 L575 1019 L575 1028 L576 1029 L576 1054 L577 1055 L577 1066 L578 1067 L578 1075 L579 1076 L579 1083 L580 1084 L580 1090 L581 1091 L581 1097 L582 1098 L582 1102 L583 1103 L583 1108 L584 1109 L584 1113 L585 1114 L585 1117 L586 1118 L586 1122 L587 1123 L587 1126 L588 1127 L588 1130 L589 1131 L589 1134 L590 1135 L590 1138 L591 1139 L591 1142 L592 1143 L592 1145 L593 1146 L593 1149 L594 1150 L594 1152 L595 1153 L595 1155 L596 1156 L596 1158 L597 1159 L597 1162 L598 1163 L598 1165 L599 1166 L599 1168 L600 1169 L600 1170 L601 1171 L601 1173 L602 1174 L602 1176 L603 1177 L603 1179 L604 1180 L604 1181 L605 1182 L605 1184 L606 1185 L606 1186 L607 1187 L607 1189 L608 1190 L608 1191 L609 1192 L609 1193 L610 1194 L610 1196 L611 1197 L611 1198 L612 1199 L612 1200 L613 1201 L613 1203 L614 1204 L614 1205 L615 1206 L615 1207 L616 1208 L616 1209 L617 1210 L617 1212 L618 1213 L618 1214 L619 1215 L619 1216 L620 1217 L620 1218 L621 1219 L621 1220 L622 1221 L622 1222 L623 1223 L623 1224 L624 1225 L624 1226 L625 1227 L625 1228 L626 1229 L626 1230 L627 1231 L627 1232 L628 1233 L628 1234 L629 1235 L629 1236 L630 1237 L630 1238 L631 1239 L631 1240 L632 1241 L632 1242 L634 1244 L634 1245 L635 1246 L635 1247 L636 1248 L636 1249 L638 1251 L638 1252 L639 1253 L639 1254 L641 1256 L641 1257 L642 1258 L642 1259 L644 1261 L644 1262 L646 1264 L646 1265 L647 1266 L647 1267 L649 1269 L649 1270 L651 1272 L651 1273 L653 1275 L653 1276 L656 1279 L656 1280 L658 1282 L658 1283 L660 1285 L660 1286 L663 1289 L663 1290 L666 1293 L666 1294 L670 1298 L670 1299 L676 1305 L676 1306 L682 1312 L682 1313 L687 1318 L687 1319 L689 1321 L689 1322 L699 1332 L699 1333 L714 1348 L715 1348 L725 1358 L726 1358 L728 1360 L729 1360 L734 1365 L735 1365 L740 1370 L741 1370 L748 1377 L749 1377 L753 1381 L754 1381 L757 1384 L758 1384 L760 1386 L761 1386 L764 1389 L765 1389 L767 1391 L768 1391 L770 1393 L771 1393 L774 1396 L775 1396 L777 1398 L778 1398 L779 1399 L780 1399 L782 1401 L783 1401 L785 1403 L786 1403 L788 1405 L789 1405 L790 1406 L791 1406 L793 1408 L794 1408 L795 1409 L796 1409 L798 1411 L799 1411 L800 1412 L801 1412 L802 1413 L803 1413 L804 1414 L805 1414 L807 1416 L808 1416 L809 1417 L810 1417 L811 1418 L812 1418 L813 1419 L814 1419 L815 1420 L816 1420 L817 1421 L818 1421 L819 1422 L820 1422 L821 1423 L822 1423 L823 1424 L824 1424 L825 1425 L826 1425 L827 1426 L828 1426 L829 1427 L830 1427 L831 1428 L832 1428 L833 1429 L835 1429 L836 1430 L837 1430 L838 1431 L839 1431 L840 1432 L841 1432 L842 1433 L843 1433 L844 1434 L846 1434 L847 1435 L848 1435 L849 1436 L850 1436 L851 1437 L853 1437 L854 1438 L855 1438 L856 1439 L858 1439 L859 1440 L860 1440 L861 1441 L862 1441 L863 1442 L865 1442 L866 1443 L868 1443 L869 1444 L870 1444 L871 1445 L873 1445 L874 1446 L876 1446 L877 1447 L879 1447 L880 1448 L882 1448 L883 1449 L885 1449 L886 1450 L888 1450 L889 1451 L891 1451 L892 1452 L894 1452 L895 1453 L898 1453 L899 1454 L901 1454 L902 1455 L905 1455 L906 1456 L909 1456 L910 1457 L912 1457 L913 1458 L916 1458 L917 1459 L920 1459 L921 1460 L925 1460 L926 1461 L929 1461 L930 1462 L934 1462 L935 1463 L939 1463 L940 1464 L945 1464 L946 1465 L950 1465 L951 1466 L957 1466 L958 1467 L964 1467 L965 1468 L972 1468 L973 1469 L982 1469 L983 1470 L995 1470 L996 1471 L1051 1471 L1052 1470 L1064 1470 L1065 1469 L1074 1469 L1075 1468 L1082 1468 L1083 1467 L1089 1467 L1090 1466 L1095 1466 L1096 1465 L1101 1465 L1102 1464 L1107 1464 L1108 1463 L1112 1463 L1113 1462 L1117 1462 L1118 1461 L1121 1461 L1122 1460 L1125 1460 L1126 1459 L1129 1459 L1130 1458 L1133 1458 L1134 1457 L1137 1457 L1138 1456 L1141 1456 L1142 1455 L1145 1455 L1146 1454 L1148 1454 L1149 1453 L1151 1453 L1152 1452 L1155 1452 L1156 1451 L1158 1451 L1159 1450 L1161 1450 L1162 1449 L1164 1449 L1165 1448 L1167 1448 L1168 1447 L1170 1447 L1171 1446 L1173 1446 L1174 1445 L1176 1445 L1177 1444 L1178 1444 L1179 1443 L1181 1443 L1182 1442 L1183 1442 L1184 1441 L1186 1441 L1187 1440 L1188 1440 L1189 1439 L1191 1439 L1192 1438 L1193 1438 L1194 1437 L1195 1437 L1196 1436 L1198 1436 L1199 1435 L1200 1435 L1201 1434 L1202 1434 L1203 1433 L1205 1433 L1206 1432 L1207 1432 L1208 1431 L1209 1431 L1210 1430 L1211 1430 L1212 1429 L1213 1429 L1214 1428 L1215 1428 L1216 1427 L1218 1427 L1219 1426 L1220 1426 L1221 1425 L1222 1425 L1223 1424 L1224 1424 L1225 1423 L1226 1423 L1227 1422 L1228 1422 L1229 1421 L1230 1421 L1232 1419 L1233 1419 L1234 1418 L1236 1418 L1237 1417 L1238 1417 L1240 1415 L1241 1415 L1242 1414 L1243 1414 L1244 1413 L1245 1413 L1246 1412 L1247 1412 L1249 1410 L1250 1410 L1251 1409 L1252 1409 L1254 1407 L1255 1407 L1256 1406 L1257 1406 L1259 1404 L1260 1404 L1261 1403 L1262 1403 L1264 1401 L1265 1401 L1267 1399 L1268 1399 L1270 1397 L1271 1397 L1273 1395 L1274 1395 L1276 1393 L1277 1393 L1279 1391 L1280 1391 L1283 1388 L1284 1388 L1286 1386 L1287 1386 L1290 1383 L1291 1383 L1294 1380 L1295 1380 L1299 1376 L1300 1376 L1307 1369 L1308 1369 L1313 1364 L1314 1364 L1318 1360 L1319 1360 L1322 1357 L1323 1357 L1337 1343 L1338 1343 L1343 1338 L1343 1337 L1357 1323 L1357 1322 L1360 1319 L1360 1318 L1364 1314 L1364 1313 L1369 1308 L1369 1307 L1376 1300 L1376 1299 L1380 1295 L1380 1294 L1383 1291 L1383 1290 L1386 1287 L1386 1286 L1388 1284 L1388 1283 L1391 1280 L1391 1279 L1393 1277 L1393 1276 L1395 1274 L1395 1273 L1397 1271 L1397 1270 L1399 1268 L1399 1267 L1401 1265 L1401 1264 L1403 1262 L1403 1261 L1404 1260 L1404 1259 L1406 1257 L1406 1256 L1407 1255 L1407 1254 L1409 1252 L1409 1251 L1410 1250 L1410 1249 L1412 1247 L1412 1246 L1413 1245 L1413 1244 L1414 1243 L1414 1242 L1415 1241 L1415 1240 L1417 1238 L1417 1237 L1418 1236 L1418 1234 L1419 1233 L1419 1232 L1421 1230 L1421 1229 L1422 1228 L1422 1227 L1423 1226 L1423 1225 L1424 1224 L1424 1223 L1425 1222 L1425 1221 L1426 1220 L1426 1219 L1427 1218 L1427 1216 L1428 1215 L1428 1214 L1429 1213 L1429 1212 L1430 1211 L1430 1210 L1431 1209 L1431 1208 L1432 1207 L1432 1206 L1433 1205 L1433 1203 L1434 1202 L1434 1201 L1435 1200 L1435 1199 L1436 1198 L1436 1196 L1437 1195 L1437 1194 L1438 1193 L1438 1192 L1439 1191 L1439 1189 L1440 1188 L1440 1187 L1441 1186 L1441 1184 L1442 1183 L1442 1182 L1443 1181 L1443 1179 L1444 1178 L1444 1177 L1445 1176 L1445 1174 L1446 1173 L1446 1171 L1447 1170 L1447 1168 L1448 1167 L1448 1165 L1449 1164 L1449 1162 L1450 1161 L1450 1159 L1451 1158 L1451 1156 L1452 1155 L1452 1152 L1453 1151 L1453 1149 L1454 1148 L1454 1146 L1455 1145 L1455 1142 L1456 1141 L1456 1138 L1457 1137 L1457 1134 L1458 1133 L1458 1130 L1459 1129 L1459 1126 L1460 1125 L1460 1122 L1461 1121 L1461 1118 L1462 1117 L1462 1113 L1463 1112 L1463 1108 L1464 1107 L1464 1102 L1465 1101 L1465 1096 L1466 1095 L1466 1090 L1467 1089 L1467 1083 L1468 1082 L1468 1075 L1469 1074 L1469 1065 L1470 1064 L1470 1052 L1471 1051 L1471 996 L1470 995 L1470 983 L1469 982 L1469 973 L1468 972 L1468 965 L1467 964 L1467 958 L1466 957 L1466 951 L1465 950 L1465 946 L1464 945 L1464 940 L1463 939 L1463 935 L1462 934 L1462 930 L1461 929 L1461 926 L1460 925 L1460 921 L1459 920 L1459 917 L1458 916 L1458 913 L1457 912 L1457 910 L1456 909 L1456 906 L1455 905 L1455 902 L1454 901 L1454 899 L1453 898 L1453 895 L1452 894 L1452 892 L1451 891 L1451 889 L1450 888 L1450 886 L1449 885 L1449 883 L1448 882 L1448 880 L1447 879 L1447 877 L1446 876 L1446 874 L1445 873 L1445 871 L1444 870 L1444 869 L1443 868 L1443 866 L1442 865 L1442 863 L1441 862 L1441 861 L1440 860 L1440 859 L1439 858 L1439 856 L1438 855 L1438 854 L1437 853 L1437 851 L1436 850 L1436 849 L1435 848 L1435 847 L1434 846 L1434 844 L1433 843 L1433 842 L1432 841 L1432 840 L1431 839 L1431 838 L1430 837 L1430 836 L1429 835 L1429 833 L1428 832 L1428 831 L1427 830 L1427 829 L1426 828 L1426 827 L1425 826 L1425 825 L1424 824 L1424 823 L1423 822 L1423 821 L1422 820 L1422 819 L1421 818 L1421 817 L1420 816 L1420 815 L1419 814 L1419 813 L1418 812 L1418 811 L1417 810 L1417 809 L1416 808 L1416 807 L1414 805 L1414 804 L1413 803 L1413 802 L1412 801 L1412 800 L1411 799 L1411 798 L1409 796 L1409 795 L1408 794 L1408 793 L1406 791 L1406 790 L1405 789 L1405 788 L1403 786 L1403 785 L1401 783 L1401 782 L1399 780 L1399 779 L1398 778 L1398 777 L1396 775 L1396 774 L1393 771 L1393 770 L1391 768 L1391 767 L1389 765 L1389 764 L1386 761 L1386 760 L1384 758 L1384 757 L1381 754 L1381 753 L1377 749 L1377 748 L1370 741 L1370 740 L1365 735 L1365 734 L1360 729 L1360 728 L1358 726 L1358 725 L1348 715 L1348 714 L1333 699 L1332 699 L1322 689 L1321 689 L1319 687 L1318 687 L1313 682 L1312 682 L1306 676 L1305 676 L1299 670 L1298 670 L1294 666 L1293 666 L1290 663 L1289 663 L1286 660 L1285 660 L1283 658 L1282 658 L1280 656 L1279 656 L1276 653 L1275 653 L1273 651 L1272 651 L1270 649 L1269 649 L1267 647 L1266 647 L1265 646 L1264 646 L1262 644 L1261 644 L1259 642 L1258 642 L1257 641 L1256 641 L1254 639 L1253 639 L1252 638 L1251 638 L1249 636 L1248 636 L1247 635 L1246 635 L1245 634 L1244 634 L1242 632 L1241 632 L1240 631 L1239 631 L1238 630 L1237 630 L1236 629 L1235 629 L1234 628 L1233 628 L1232 627 L1231 627 L1230 626 L1229 626 L1228 625 L1227 625 L1226 624 L1225 624 L1224 623 L1223 623 L1222 622 L1221 622 L1220 621 L1219 621 L1218 620 L1217 620 L1216 619 L1215 619 L1214 618 L1213 618 L1212 617 L1210 617 L1209 616 L1208 616 L1207 615 L1206 615 L1205 614 L1204 614 L1203 613 L1201 613 L1200 612 L1199 612 L1198 611 L1197 611 L1196 610 L1194 610 L1193 609 L1192 609 L1191 608 L1190 608 L1189 607 L1187 607 L1186 606 L1185 606 L1184 605 L1182 605 L1181 604 L1180 604 L1179 603 L1177 603 L1176 602 L1174 602 L1173 601 L1171 601 L1170 600 L1169 600 L1168 599 L1166 599 L1165 598 L1163 598 L1162 597 L1159 597 L1158 596 L1156 596 L1155 595 L1153 595 L1152 594 L1150 594 L1149 593 L1146 593 L1145 592 L1143 592 L1142 591 L1139 591 L1138 590 L1135 590 L1134 589 L1131 589 L1130 588 L1127 588 L1126 587 L1123 587 L1122 586 L1118 586 L1117 585 L1114 585 L1113 584 L1109 584 L1108 583 L1103 583 L1102 582 L1098 582 L1097 581 L1091 581 L1090 580 L1084 580 L1083 579 L1076 579 L1075 578 L1067 578 L1066 577 L1055 577 L1054 576 L1029 576 L1028 575 Z M998 634 L999 633 L1048 633 L1049 634 L1060 634 L1061 635 L1069 635 L1070 636 L1077 636 L1078 637 L1084 637 L1085 638 L1090 638 L1091 639 L1095 639 L1096 640 L1100 640 L1101 641 L1105 641 L1106 642 L1109 642 L1110 643 L1114 643 L1115 644 L1118 644 L1119 645 L1122 645 L1123 646 L1125 646 L1126 647 L1129 647 L1130 648 L1132 648 L1133 649 L1136 649 L1137 650 L1139 650 L1140 651 L1142 651 L1143 652 L1145 652 L1146 653 L1148 653 L1149 654 L1151 654 L1152 655 L1153 655 L1154 656 L1156 656 L1157 657 L1159 657 L1160 658 L1161 658 L1162 659 L1164 659 L1165 660 L1167 660 L1168 661 L1169 661 L1170 662 L1171 662 L1172 663 L1174 663 L1175 664 L1176 664 L1177 665 L1179 665 L1180 666 L1181 666 L1182 667 L1183 667 L1184 668 L1185 668 L1186 669 L1187 669 L1188 670 L1190 670 L1191 671 L1192 671 L1193 672 L1194 672 L1195 673 L1196 673 L1197 674 L1198 674 L1199 675 L1200 675 L1201 676 L1202 676 L1203 677 L1204 677 L1205 678 L1206 678 L1207 679 L1208 679 L1209 680 L1210 680 L1211 681 L1212 681 L1213 682 L1214 682 L1216 684 L1217 684 L1218 685 L1219 685 L1221 687 L1222 687 L1223 688 L1224 688 L1226 690 L1227 690 L1228 691 L1229 691 L1231 693 L1232 693 L1234 695 L1235 695 L1237 697 L1238 697 L1240 699 L1241 699 L1243 701 L1244 701 L1246 703 L1247 703 L1249 705 L1250 705 L1253 708 L1254 708 L1258 712 L1259 712 L1263 716 L1264 716 L1268 720 L1269 720 L1274 725 L1275 725 L1280 730 L1281 730 L1285 734 L1286 734 L1313 761 L1313 762 L1317 766 L1317 767 L1322 772 L1322 773 L1327 778 L1327 779 L1331 783 L1331 784 L1335 788 L1335 789 L1339 793 L1339 794 L1342 797 L1342 798 L1344 800 L1344 801 L1346 803 L1346 804 L1348 806 L1348 807 L1350 809 L1350 810 L1352 812 L1352 813 L1354 815 L1354 816 L1356 818 L1356 819 L1357 820 L1357 821 L1359 823 L1359 824 L1360 825 L1360 826 L1362 828 L1362 829 L1363 830 L1363 831 L1364 832 L1364 833 L1366 835 L1366 836 L1367 837 L1367 838 L1368 839 L1368 840 L1369 841 L1369 842 L1370 843 L1370 844 L1371 845 L1371 846 L1372 847 L1372 848 L1373 849 L1373 850 L1374 851 L1374 852 L1375 853 L1375 855 L1376 856 L1376 857 L1377 858 L1377 859 L1378 860 L1378 861 L1379 862 L1379 863 L1380 864 L1380 865 L1381 866 L1381 868 L1382 869 L1382 870 L1383 871 L1383 872 L1384 873 L1384 875 L1385 876 L1385 877 L1386 878 L1386 880 L1387 881 L1387 882 L1388 883 L1388 885 L1389 886 L1389 887 L1390 888 L1390 890 L1391 891 L1391 893 L1392 894 L1392 896 L1393 897 L1393 899 L1394 900 L1394 902 L1395 903 L1395 905 L1396 906 L1396 908 L1397 909 L1397 911 L1398 912 L1398 914 L1399 915 L1399 918 L1400 919 L1400 921 L1401 922 L1401 925 L1402 926 L1402 929 L1403 930 L1403 933 L1404 934 L1404 937 L1405 938 L1405 942 L1406 943 L1406 947 L1407 948 L1407 952 L1408 953 L1408 957 L1409 958 L1409 963 L1410 964 L1410 970 L1411 971 L1411 978 L1412 979 L1412 988 L1413 989 L1413 1001 L1414 1002 L1414 1045 L1413 1046 L1413 1058 L1412 1059 L1412 1068 L1411 1069 L1411 1076 L1410 1077 L1410 1082 L1409 1083 L1409 1089 L1408 1090 L1408 1094 L1407 1095 L1407 1099 L1406 1100 L1406 1104 L1405 1105 L1405 1109 L1404 1110 L1404 1113 L1403 1114 L1403 1117 L1402 1118 L1402 1121 L1401 1122 L1401 1125 L1400 1126 L1400 1128 L1399 1129 L1399 1132 L1398 1133 L1398 1135 L1397 1136 L1397 1138 L1396 1139 L1396 1141 L1395 1142 L1395 1144 L1394 1145 L1394 1147 L1393 1148 L1393 1150 L1392 1151 L1392 1153 L1391 1154 L1391 1156 L1390 1157 L1390 1158 L1389 1159 L1389 1161 L1388 1162 L1388 1164 L1387 1165 L1387 1166 L1386 1167 L1386 1169 L1385 1170 L1385 1171 L1384 1172 L1384 1173 L1383 1174 L1383 1176 L1382 1177 L1382 1178 L1381 1179 L1381 1180 L1380 1181 L1380 1183 L1379 1184 L1379 1185 L1378 1186 L1378 1187 L1377 1188 L1377 1189 L1376 1190 L1376 1191 L1375 1192 L1375 1193 L1374 1194 L1374 1196 L1373 1197 L1373 1198 L1372 1199 L1372 1200 L1371 1201 L1371 1202 L1370 1203 L1370 1204 L1369 1205 L1369 1206 L1368 1207 L1368 1208 L1367 1209 L1367 1210 L1365 1212 L1365 1213 L1364 1214 L1364 1215 L1363 1216 L1363 1217 L1361 1219 L1361 1220 L1360 1221 L1360 1222 L1358 1224 L1358 1225 L1357 1226 L1357 1227 L1355 1229 L1355 1230 L1354 1231 L1354 1232 L1352 1234 L1352 1235 L1350 1237 L1350 1238 L1348 1240 L1348 1241 L1346 1243 L1346 1244 L1344 1246 L1344 1247 L1341 1250 L1341 1251 L1338 1254 L1338 1255 L1334 1259 L1334 1260 L1330 1264 L1330 1265 L1326 1269 L1326 1270 L1321 1275 L1321 1276 L1316 1281 L1316 1282 L1311 1287 L1311 1288 L1288 1311 L1287 1311 L1282 1316 L1281 1316 L1276 1321 L1275 1321 L1270 1326 L1269 1326 L1265 1330 L1264 1330 L1260 1334 L1259 1334 L1255 1338 L1254 1338 L1251 1341 L1250 1341 L1247 1344 L1246 1344 L1244 1346 L1243 1346 L1241 1348 L1240 1348 L1238 1350 L1237 1350 L1235 1352 L1234 1352 L1232 1354 L1231 1354 L1230 1355 L1229 1355 L1227 1357 L1226 1357 L1225 1358 L1224 1358 L1222 1360 L1221 1360 L1220 1361 L1219 1361 L1217 1363 L1216 1363 L1215 1364 L1214 1364 L1213 1365 L1212 1365 L1210 1367 L1209 1367 L1208 1368 L1207 1368 L1206 1369 L1205 1369 L1204 1370 L1203 1370 L1202 1371 L1201 1371 L1200 1372 L1199 1372 L1198 1373 L1197 1373 L1196 1374 L1194 1374 L1193 1375 L1192 1375 L1191 1376 L1190 1376 L1189 1377 L1188 1377 L1187 1378 L1186 1378 L1185 1379 L1184 1379 L1183 1380 L1181 1380 L1180 1381 L1179 1381 L1178 1382 L1177 1382 L1176 1383 L1174 1383 L1173 1384 L1172 1384 L1171 1385 L1170 1385 L1169 1386 L1167 1386 L1166 1387 L1165 1387 L1164 1388 L1162 1388 L1161 1389 L1159 1389 L1158 1390 L1157 1390 L1156 1391 L1154 1391 L1153 1392 L1151 1392 L1150 1393 L1148 1393 L1147 1394 L1145 1394 L1144 1395 L1142 1395 L1141 1396 L1139 1396 L1138 1397 L1136 1397 L1135 1398 L1133 1398 L1132 1399 L1129 1399 L1128 1400 L1126 1400 L1125 1401 L1122 1401 L1121 1402 L1118 1402 L1117 1403 L1114 1403 L1113 1404 L1110 1404 L1109 1405 L1105 1405 L1104 1406 L1100 1406 L1099 1407 L1095 1407 L1094 1408 L1090 1408 L1089 1409 L1084 1409 L1083 1410 L1077 1410 L1076 1411 L1069 1411 L1068 1412 L1059 1412 L1058 1413 L1046 1413 L1045 1414 L1002 1414 L1001 1413 L989 1413 L988 1412 L979 1412 L978 1411 L971 1411 L970 1410 L964 1410 L963 1409 L958 1409 L957 1408 L953 1408 L952 1407 L948 1407 L947 1406 L943 1406 L942 1405 L938 1405 L937 1404 L934 1404 L933 1403 L930 1403 L929 1402 L926 1402 L925 1401 L922 1401 L921 1400 L919 1400 L918 1399 L915 1399 L914 1398 L912 1398 L911 1397 L909 1397 L908 1396 L906 1396 L905 1395 L903 1395 L902 1394 L900 1394 L899 1393 L897 1393 L896 1392 L894 1392 L893 1391 L891 1391 L890 1390 L888 1390 L887 1389 L886 1389 L885 1388 L883 1388 L882 1387 L881 1387 L880 1386 L878 1386 L877 1385 L876 1385 L875 1384 L873 1384 L872 1383 L871 1383 L870 1382 L869 1382 L868 1381 L866 1381 L865 1380 L864 1380 L863 1379 L862 1379 L861 1378 L860 1378 L859 1377 L858 1377 L857 1376 L855 1376 L854 1375 L853 1375 L852 1374 L851 1374 L850 1373 L849 1373 L848 1372 L847 1372 L846 1371 L845 1371 L844 1370 L843 1370 L842 1369 L841 1369 L840 1368 L839 1368 L838 1367 L837 1367 L836 1366 L835 1366 L833 1364 L832 1364 L831 1363 L830 1363 L829 1362 L828 1362 L826 1360 L825 1360 L824 1359 L823 1359 L821 1357 L820 1357 L819 1356 L818 1356 L816 1354 L815 1354 L813 1352 L812 1352 L810 1350 L809 1350 L807 1348 L806 1348 L804 1346 L803 1346 L801 1344 L800 1344 L798 1342 L797 1342 L794 1339 L793 1339 L789 1335 L788 1335 L784 1331 L783 1331 L779 1327 L778 1327 L773 1322 L772 1322 L767 1317 L766 1317 L762 1313 L761 1313 L734 1286 L734 1285 L730 1281 L730 1280 L725 1275 L725 1274 L720 1269 L720 1268 L716 1264 L716 1263 L712 1259 L712 1258 L708 1254 L708 1253 L705 1250 L705 1249 L703 1247 L703 1246 L701 1244 L701 1243 L699 1241 L699 1240 L697 1238 L697 1237 L695 1235 L695 1234 L693 1232 L693 1231 L691 1229 L691 1228 L690 1227 L690 1226 L688 1224 L688 1220 L689 1219 L689 1218 L691 1216 L691 1215 L693 1213 L693 1212 L695 1210 L695 1209 L696 1208 L696 1207 L698 1205 L698 1204 L700 1202 L700 1201 L702 1199 L702 1198 L703 1197 L703 1196 L705 1194 L705 1193 L707 1191 L707 1190 L709 1188 L709 1187 L711 1185 L711 1184 L713 1182 L713 1181 L715 1179 L715 1178 L716 1177 L716 1176 L718 1174 L718 1173 L720 1171 L720 1170 L722 1168 L722 1167 L723 1166 L723 1165 L725 1163 L725 1162 L727 1160 L727 1159 L728 1158 L728 1157 L730 1155 L730 1154 L732 1152 L732 1151 L733 1150 L733 1149 L734 1148 L734 1147 L735 1146 L735 1145 L737 1143 L737 1142 L738 1141 L738 1140 L740 1138 L740 1137 L742 1135 L742 1134 L744 1132 L744 1131 L746 1129 L746 1128 L748 1126 L748 1125 L750 1123 L750 1122 L752 1120 L752 1119 L753 1118 L753 1117 L755 1115 L755 1114 L757 1112 L757 1111 L759 1109 L759 1108 L760 1107 L760 1106 L762 1104 L762 1103 L764 1101 L764 1100 L765 1099 L765 1098 L767 1096 L767 1095 L769 1093 L769 1092 L771 1090 L771 1089 L772 1088 L772 1087 L774 1085 L774 1084 L776 1082 L776 1081 L777 1080 L777 1079 L779 1077 L779 1076 L781 1074 L781 1073 L783 1071 L783 1070 L784 1069 L784 1068 L786 1066 L786 1065 L788 1063 L788 1062 L789 1061 L789 1060 L791 1058 L791 1057 L792 1056 L792 1055 L794 1053 L794 1052 L795 1051 L795 1050 L797 1048 L797 1047 L799 1045 L799 1044 L801 1042 L801 1041 L802 1040 L802 1039 L804 1037 L804 1036 L806 1034 L806 1033 L807 1032 L807 1031 L809 1029 L809 1028 L811 1026 L811 1025 L813 1023 L813 1022 L814 1021 L814 1020 L816 1018 L816 1017 L819 1014 L819 1013 L820 1012 L820 1011 L822 1009 L822 1008 L824 1006 L824 1005 L826 1003 L826 1002 L827 1001 L827 1000 L829 998 L829 997 L831 995 L831 994 L833 992 L833 991 L834 990 L834 989 L836 987 L836 986 L838 984 L838 983 L839 982 L839 981 L841 979 L841 978 L843 976 L843 975 L844 974 L844 973 L846 971 L846 970 L847 969 L847 968 L849 966 L849 965 L850 964 L850 963 L852 961 L852 960 L854 958 L854 957 L856 955 L856 954 L859 951 L859 950 L861 948 L861 947 L864 944 L864 943 L867 940 L867 939 L870 936 L870 935 L874 931 L874 930 L879 925 L879 924 L889 914 L889 913 L894 908 L895 908 L905 898 L906 898 L911 893 L912 893 L915 890 L916 890 L919 887 L920 887 L922 885 L923 885 L925 883 L926 883 L928 881 L929 881 L931 879 L932 879 L933 878 L934 878 L936 876 L937 876 L938 875 L939 875 L940 874 L941 874 L942 873 L943 873 L944 872 L945 872 L946 871 L947 871 L948 870 L949 870 L950 869 L951 869 L952 868 L953 868 L954 867 L956 867 L957 866 L958 866 L959 865 L961 865 L962 864 L963 864 L964 863 L966 863 L967 862 L970 862 L971 861 L973 861 L974 860 L977 860 L978 859 L982 859 L983 858 L987 858 L988 857 L994 857 L995 856 L1002 856 L1003 855 L1035 855 L1036 856 L1043 856 L1044 857 L1049 857 L1050 858 L1054 858 L1055 859 L1058 859 L1059 860 L1062 860 L1063 861 L1065 861 L1066 862 L1069 862 L1070 863 L1072 863 L1073 864 L1074 864 L1075 865 L1077 865 L1078 866 L1080 866 L1081 867 L1082 867 L1083 868 L1084 868 L1085 869 L1087 869 L1088 870 L1089 870 L1090 871 L1091 871 L1092 872 L1093 872 L1094 873 L1095 873 L1096 874 L1097 874 L1099 876 L1100 876 L1101 877 L1102 877 L1103 878 L1104 878 L1106 880 L1107 880 L1108 881 L1109 881 L1111 883 L1112 883 L1114 885 L1115 885 L1117 887 L1118 887 L1120 889 L1121 889 L1124 892 L1125 892 L1128 895 L1129 895 L1134 900 L1135 900 L1150 915 L1150 916 L1155 921 L1155 922 L1159 926 L1159 927 L1161 929 L1161 930 L1163 932 L1163 933 L1165 935 L1165 936 L1167 938 L1167 939 L1168 940 L1168 941 L1170 943 L1170 944 L1171 945 L1171 946 L1172 947 L1172 948 L1174 950 L1174 951 L1175 952 L1175 953 L1176 954 L1176 955 L1177 956 L1177 957 L1178 958 L1178 960 L1179 961 L1179 962 L1180 963 L1180 964 L1181 965 L1181 967 L1182 968 L1182 969 L1183 970 L1183 972 L1184 973 L1184 975 L1185 976 L1185 978 L1186 979 L1186 981 L1187 982 L1187 985 L1188 986 L1188 989 L1189 990 L1189 993 L1190 994 L1190 998 L1191 999 L1191 1004 L1192 1005 L1192 1011 L1193 1012 L1193 1026 L1194 1027 L1194 1034 L1193 1035 L1193 1049 L1192 1050 L1192 1056 L1191 1057 L1191 1061 L1190 1062 L1190 1066 L1189 1067 L1189 1070 L1188 1071 L1188 1074 L1187 1075 L1187 1077 L1186 1078 L1186 1081 L1185 1082 L1185 1084 L1184 1085 L1184 1086 L1183 1087 L1183 1089 L1182 1090 L1182 1091 L1181 1092 L1181 1094 L1180 1095 L1180 1096 L1179 1097 L1179 1098 L1178 1099 L1178 1100 L1177 1101 L1177 1102 L1176 1103 L1176 1104 L1175 1105 L1175 1106 L1174 1107 L1174 1108 L1173 1109 L1173 1110 L1172 1111 L1172 1112 L1171 1113 L1171 1114 L1170 1115 L1170 1116 L1168 1118 L1168 1119 L1167 1120 L1167 1121 L1166 1122 L1166 1123 L1164 1125 L1164 1126 L1162 1128 L1162 1129 L1160 1131 L1160 1132 L1158 1134 L1158 1135 L1156 1137 L1156 1138 L1153 1141 L1153 1142 L1149 1146 L1149 1147 L1145 1151 L1145 1152 L1126 1171 L1125 1171 L1122 1174 L1121 1174 L1118 1177 L1117 1177 L1115 1179 L1114 1179 L1113 1180 L1112 1180 L1110 1182 L1109 1182 L1107 1184 L1106 1184 L1105 1185 L1104 1185 L1103 1186 L1102 1186 L1101 1187 L1100 1187 L1098 1189 L1097 1189 L1096 1190 L1095 1190 L1094 1191 L1093 1191 L1092 1192 L1091 1192 L1090 1193 L1089 1193 L1088 1194 L1087 1194 L1086 1195 L1084 1195 L1083 1196 L1082 1196 L1081 1197 L1079 1197 L1078 1198 L1076 1198 L1075 1199 L1072 1199 L1071 1200 L1068 1200 L1067 1201 L1065 1201 L1064 1202 L1060 1202 L1059 1203 L1056 1203 L1055 1204 L1051 1204 L1050 1205 L1044 1205 L1043 1206 L1035 1206 L1034 1207 L1005 1207 L1004 1206 L996 1206 L995 1205 L990 1205 L989 1204 L985 1204 L984 1203 L980 1203 L979 1202 L976 1202 L975 1201 L972 1201 L971 1200 L969 1200 L968 1199 L965 1199 L964 1198 L962 1198 L961 1197 L960 1197 L959 1196 L959 1194 L960 1193 L960 1192 L962 1190 L962 1189 L963 1188 L963 1187 L965 1185 L965 1184 L967 1182 L967 1181 L968 1180 L968 1179 L970 1177 L970 1176 L972 1174 L972 1173 L974 1171 L974 1170 L976 1168 L976 1167 L977 1166 L977 1165 L979 1163 L979 1162 L981 1160 L981 1159 L983 1157 L983 1156 L985 1154 L985 1153 L986 1152 L986 1151 L988 1149 L988 1148 L990 1146 L990 1145 L992 1143 L992 1142 L993 1141 L993 1140 L995 1138 L995 1137 L997 1135 L997 1134 L999 1132 L999 1131 L1001 1129 L1001 1128 L1003 1126 L1003 1125 L1005 1123 L1005 1122 L1006 1121 L1006 1120 L1008 1118 L1008 1117 L1010 1115 L1010 1114 L1012 1112 L1012 1111 L1013 1110 L1013 1109 L1015 1107 L1022 1107 L1023 1106 L1030 1106 L1031 1105 L1035 1105 L1036 1104 L1039 1104 L1040 1103 L1042 1103 L1043 1102 L1045 1102 L1046 1101 L1047 1101 L1048 1100 L1049 1100 L1050 1099 L1051 1099 L1052 1098 L1053 1098 L1054 1097 L1055 1097 L1056 1096 L1057 1096 L1059 1094 L1060 1094 L1063 1091 L1064 1091 L1070 1085 L1071 1085 L1072 1084 L1072 1083 L1077 1078 L1077 1077 L1080 1074 L1080 1073 L1082 1071 L1082 1070 L1083 1069 L1083 1068 L1085 1066 L1085 1064 L1086 1063 L1086 1062 L1087 1061 L1087 1060 L1088 1059 L1088 1057 L1089 1056 L1089 1054 L1090 1053 L1090 1050 L1091 1049 L1091 1044 L1092 1043 L1092 1020 L1091 1019 L1091 1015 L1090 1014 L1090 1011 L1089 1010 L1089 1008 L1088 1007 L1088 1005 L1087 1004 L1087 1002 L1086 1001 L1086 1000 L1085 999 L1085 998 L1084 997 L1084 996 L1083 995 L1083 994 L1081 992 L1081 991 L1080 990 L1080 989 L1077 986 L1077 985 L1071 979 L1071 978 L1070 977 L1069 977 L1063 971 L1062 971 L1060 969 L1059 969 L1057 967 L1056 967 L1055 966 L1054 966 L1052 964 L1051 964 L1050 963 L1049 963 L1048 962 L1046 962 L1045 961 L1044 961 L1043 960 L1041 960 L1040 959 L1037 959 L1036 958 L1033 958 L1032 957 L1026 957 L1025 956 L1008 956 L1007 957 L1003 957 L1002 958 L998 958 L997 959 L995 959 L994 960 L993 960 L992 961 L990 961 L989 962 L988 962 L987 963 L986 963 L985 964 L984 964 L983 965 L982 965 L980 967 L979 967 L977 969 L976 969 L973 972 L972 972 L957 987 L957 988 L953 992 L953 993 L951 995 L951 996 L948 999 L948 1000 L946 1002 L946 1003 L943 1006 L943 1007 L941 1009 L941 1010 L939 1012 L939 1013 L937 1015 L937 1016 L935 1018 L935 1019 L933 1021 L933 1022 L930 1025 L930 1026 L928 1028 L928 1029 L926 1031 L926 1032 L924 1034 L924 1035 L923 1036 L923 1037 L921 1039 L921 1040 L919 1042 L919 1043 L917 1045 L917 1046 L916 1047 L916 1048 L914 1050 L914 1051 L913 1052 L913 1053 L911 1055 L911 1056 L909 1058 L909 1059 L908 1060 L908 1061 L906 1063 L906 1064 L904 1066 L904 1067 L903 1068 L903 1069 L901 1071 L901 1072 L899 1074 L899 1075 L898 1076 L898 1077 L896 1079 L896 1080 L894 1082 L894 1083 L893 1084 L893 1085 L891 1087 L891 1088 L889 1090 L889 1091 L887 1093 L887 1094 L885 1096 L885 1097 L884 1098 L884 1099 L882 1101 L882 1102 L881 1103 L881 1104 L879 1106 L879 1107 L878 1108 L878 1109 L876 1111 L876 1112 L875 1113 L875 1114 L873 1116 L873 1117 L871 1119 L871 1120 L870 1121 L870 1122 L868 1124 L868 1125 L867 1126 L867 1127 L865 1129 L865 1130 L864 1131 L864 1132 L862 1134 L862 1135 L861 1136 L861 1137 L859 1139 L859 1140 L858 1141 L858 1142 L857 1143 L857 1144 L855 1146 L855 1147 L854 1148 L854 1149 L852 1151 L852 1152 L851 1153 L851 1154 L849 1156 L849 1157 L847 1159 L847 1160 L846 1161 L846 1162 L844 1164 L844 1165 L842 1167 L842 1168 L841 1169 L841 1170 L839 1172 L839 1173 L837 1175 L837 1176 L836 1177 L836 1178 L833 1181 L833 1182 L831 1184 L831 1185 L829 1187 L829 1188 L827 1190 L827 1191 L825 1193 L825 1194 L822 1197 L822 1198 L820 1200 L820 1201 L818 1203 L818 1204 L816 1206 L816 1207 L814 1209 L814 1210 L812 1212 L812 1213 L811 1214 L811 1218 L830 1237 L831 1237 L837 1243 L838 1243 L841 1246 L842 1246 L844 1248 L845 1248 L849 1252 L850 1252 L853 1255 L854 1255 L857 1258 L858 1258 L861 1261 L862 1261 L864 1263 L865 1263 L867 1265 L868 1265 L870 1267 L871 1267 L873 1269 L874 1269 L875 1270 L876 1270 L878 1272 L879 1272 L880 1273 L881 1273 L882 1274 L883 1274 L885 1276 L886 1276 L887 1277 L888 1277 L889 1278 L890 1278 L891 1279 L892 1279 L893 1280 L894 1280 L895 1281 L896 1281 L897 1282 L898 1282 L899 1283 L900 1283 L901 1284 L902 1284 L903 1285 L904 1285 L905 1286 L907 1286 L908 1287 L909 1287 L910 1288 L911 1288 L912 1289 L914 1289 L915 1290 L916 1290 L917 1291 L919 1291 L920 1292 L921 1292 L922 1293 L924 1293 L925 1294 L927 1294 L928 1295 L929 1295 L930 1296 L932 1296 L933 1297 L935 1297 L936 1298 L938 1298 L939 1299 L942 1299 L943 1300 L945 1300 L946 1301 L949 1301 L950 1302 L953 1302 L954 1303 L958 1303 L959 1304 L965 1304 L966 1305 L970 1305 L971 1306 L975 1306 L976 1307 L982 1307 L983 1308 L989 1308 L990 1309 L999 1309 L1000 1310 L1046 1310 L1047 1309 L1057 1309 L1058 1308 L1064 1308 L1065 1307 L1071 1307 L1072 1306 L1076 1306 L1077 1305 L1081 1305 L1082 1304 L1088 1304 L1089 1303 L1093 1303 L1094 1302 L1097 1302 L1098 1301 L1100 1301 L1101 1300 L1104 1300 L1105 1299 L1107 1299 L1108 1298 L1111 1298 L1112 1297 L1114 1297 L1115 1296 L1117 1296 L1118 1295 L1119 1295 L1120 1294 L1122 1294 L1123 1293 L1125 1293 L1126 1292 L1127 1292 L1128 1291 L1130 1291 L1131 1290 L1132 1290 L1133 1289 L1135 1289 L1136 1288 L1137 1288 L1138 1287 L1139 1287 L1140 1286 L1141 1286 L1142 1285 L1144 1285 L1145 1284 L1146 1284 L1147 1283 L1148 1283 L1149 1282 L1150 1282 L1151 1281 L1152 1281 L1153 1280 L1154 1280 L1155 1279 L1156 1279 L1157 1278 L1158 1278 L1159 1277 L1160 1277 L1162 1275 L1163 1275 L1164 1274 L1165 1274 L1166 1273 L1167 1273 L1169 1271 L1170 1271 L1171 1270 L1172 1270 L1174 1268 L1175 1268 L1176 1267 L1177 1267 L1179 1265 L1180 1265 L1182 1263 L1183 1263 L1185 1261 L1186 1261 L1190 1257 L1191 1257 L1194 1254 L1195 1254 L1198 1251 L1199 1251 L1202 1248 L1203 1248 L1205 1246 L1206 1246 L1210 1242 L1211 1242 L1218 1235 L1219 1235 L1235 1219 L1235 1218 L1242 1211 L1242 1210 L1246 1206 L1246 1205 L1248 1203 L1248 1202 L1251 1199 L1251 1198 L1254 1195 L1254 1194 L1257 1191 L1257 1190 L1261 1186 L1261 1185 L1263 1183 L1263 1182 L1265 1180 L1265 1179 L1267 1177 L1267 1176 L1268 1175 L1268 1174 L1270 1172 L1270 1171 L1271 1170 L1271 1169 L1273 1167 L1273 1166 L1274 1165 L1274 1164 L1275 1163 L1275 1162 L1277 1160 L1277 1159 L1278 1158 L1278 1157 L1279 1156 L1279 1155 L1280 1154 L1280 1153 L1281 1152 L1281 1151 L1282 1150 L1282 1149 L1283 1148 L1283 1147 L1284 1146 L1284 1145 L1285 1144 L1285 1142 L1286 1141 L1286 1140 L1287 1139 L1287 1138 L1288 1137 L1288 1136 L1289 1135 L1289 1133 L1290 1132 L1290 1131 L1291 1130 L1291 1128 L1292 1127 L1292 1126 L1293 1125 L1293 1123 L1294 1122 L1294 1120 L1295 1119 L1295 1118 L1296 1117 L1296 1115 L1297 1114 L1297 1112 L1298 1111 L1298 1108 L1299 1107 L1299 1105 L1300 1104 L1300 1101 L1301 1100 L1301 1098 L1302 1097 L1302 1094 L1303 1093 L1303 1089 L1304 1088 L1304 1082 L1305 1081 L1305 1077 L1306 1076 L1306 1072 L1307 1071 L1307 1065 L1308 1064 L1308 1057 L1309 1056 L1309 1047 L1310 1046 L1310 1001 L1309 1000 L1309 990 L1308 989 L1308 983 L1307 982 L1307 976 L1306 975 L1306 971 L1305 970 L1305 966 L1304 965 L1304 959 L1303 958 L1303 954 L1302 953 L1302 950 L1301 949 L1301 946 L1300 945 L1300 943 L1299 942 L1299 939 L1298 938 L1298 936 L1297 935 L1297 933 L1296 932 L1296 930 L1295 929 L1295 928 L1294 927 L1294 925 L1293 924 L1293 922 L1292 921 L1292 920 L1291 919 L1291 917 L1290 916 L1290 915 L1289 914 L1289 912 L1288 911 L1288 910 L1287 909 L1287 908 L1286 907 L1286 905 L1285 904 L1285 903 L1284 902 L1284 901 L1283 900 L1283 899 L1282 898 L1282 897 L1281 896 L1281 895 L1280 894 L1280 893 L1279 892 L1279 891 L1278 890 L1278 889 L1277 888 L1277 887 L1276 886 L1276 885 L1274 883 L1274 882 L1273 881 L1273 880 L1272 879 L1272 878 L1270 876 L1270 875 L1269 874 L1269 873 L1267 871 L1267 870 L1265 868 L1265 867 L1263 865 L1263 864 L1261 862 L1261 861 L1258 858 L1258 857 L1255 854 L1255 853 L1252 850 L1252 849 L1248 845 L1248 844 L1246 842 L1246 841 L1243 838 L1243 837 L1236 830 L1236 829 L1217 810 L1216 810 L1210 804 L1209 804 L1206 801 L1205 801 L1203 799 L1202 799 L1198 795 L1197 795 L1194 792 L1193 792 L1189 788 L1188 788 L1186 786 L1185 786 L1183 784 L1182 784 L1180 782 L1179 782 L1177 780 L1176 780 L1174 778 L1173 778 L1172 777 L1171 777 L1169 775 L1168 775 L1167 774 L1166 774 L1164 772 L1163 772 L1162 771 L1161 771 L1160 770 L1159 770 L1158 769 L1157 769 L1156 768 L1155 768 L1154 767 L1153 767 L1152 766 L1151 766 L1150 765 L1149 765 L1148 764 L1147 764 L1146 763 L1145 763 L1144 762 L1143 762 L1142 761 L1141 761 L1140 760 L1138 760 L1137 759 L1136 759 L1135 758 L1134 758 L1133 757 L1131 757 L1130 756 L1129 756 L1128 755 L1126 755 L1125 754 L1123 754 L1122 753 L1121 753 L1120 752 L1118 752 L1117 751 L1115 751 L1114 750 L1112 750 L1111 749 L1109 749 L1108 748 L1106 748 L1105 747 L1102 747 L1101 746 L1098 746 L1097 745 L1094 745 L1093 744 L1090 744 L1089 743 L1083 743 L1082 742 L1078 742 L1077 741 L1072 741 L1071 740 L1066 740 L1065 739 L1059 739 L1058 738 L1049 738 L1048 737 L1031 737 L1030 736 L1016 736 L1015 737 L999 737 L998 738 L989 738 L988 739 L982 739 L981 740 L975 740 L974 741 L970 741 L969 742 L965 742 L964 743 L958 743 L957 744 L954 744 L953 745 L950 745 L949 746 L946 746 L945 747 L942 747 L941 748 L939 748 L938 749 L936 749 L935 750 L933 750 L932 751 L930 751 L929 752 L927 752 L926 753 L924 753 L923 754 L922 754 L921 755 L919 755 L918 756 L916 756 L915 757 L914 757 L913 758 L912 758 L911 759 L909 759 L908 760 L907 760 L906 761 L905 761 L904 762 L903 762 L902 763 L900 763 L899 764 L898 764 L897 765 L896 765 L895 766 L894 766 L893 767 L892 767 L891 768 L890 768 L889 769 L888 769 L887 770 L886 770 L884 772 L883 772 L882 773 L881 773 L880 774 L879 774 L877 776 L876 776 L875 777 L874 777 L872 779 L871 779 L870 780 L869 780 L867 782 L866 782 L864 784 L863 784 L861 786 L860 786 L856 790 L855 790 L852 793 L851 793 L847 797 L846 797 L842 801 L841 801 L839 803 L838 803 L831 810 L830 810 L821 819 L821 820 L812 829 L812 830 L807 835 L807 836 L804 839 L804 840 L801 843 L801 844 L800 845 L800 846 L797 849 L797 850 L794 853 L794 854 L790 858 L790 859 L787 862 L787 863 L785 865 L785 866 L783 868 L783 869 L781 871 L781 872 L779 874 L779 875 L777 877 L777 878 L775 880 L775 881 L773 883 L773 884 L771 886 L771 887 L769 889 L769 890 L768 891 L768 892 L766 894 L766 895 L764 897 L764 898 L762 900 L762 901 L761 902 L761 903 L759 905 L759 906 L757 908 L757 909 L756 910 L756 911 L754 913 L754 914 L752 916 L752 917 L750 919 L750 920 L749 921 L749 922 L747 924 L747 925 L746 926 L746 927 L744 929 L744 930 L743 931 L743 932 L742 933 L742 934 L740 936 L740 937 L738 939 L738 940 L737 941 L737 942 L735 944 L735 945 L734 946 L734 947 L732 949 L732 950 L731 951 L731 952 L729 954 L729 955 L727 957 L727 958 L726 959 L726 960 L724 962 L724 963 L723 964 L723 965 L721 967 L721 968 L720 969 L720 970 L718 972 L718 973 L716 975 L716 976 L714 978 L714 979 L712 981 L712 982 L711 983 L711 984 L709 986 L709 987 L708 988 L708 989 L706 991 L706 992 L704 994 L704 995 L703 996 L703 997 L701 999 L701 1000 L699 1002 L699 1003 L698 1004 L698 1005 L696 1007 L696 1008 L695 1009 L695 1010 L693 1012 L693 1013 L691 1015 L691 1016 L690 1017 L690 1018 L688 1020 L688 1021 L687 1022 L687 1023 L685 1025 L685 1026 L684 1027 L684 1028 L682 1030 L682 1031 L680 1033 L680 1034 L678 1036 L678 1037 L676 1039 L676 1040 L674 1042 L674 1043 L672 1045 L672 1046 L671 1047 L671 1048 L669 1050 L669 1051 L667 1053 L667 1054 L665 1056 L665 1057 L663 1059 L663 1060 L661 1062 L661 1063 L660 1064 L660 1065 L658 1067 L658 1068 L656 1070 L656 1071 L654 1073 L654 1074 L652 1076 L652 1077 L650 1079 L650 1080 L648 1082 L648 1083 L644 1087 L644 1088 L642 1090 L639 1090 L638 1089 L638 1084 L637 1083 L637 1078 L636 1077 L636 1070 L635 1069 L635 1061 L634 1060 L634 1049 L633 1048 L633 999 L634 998 L634 987 L635 986 L635 978 L636 977 L636 970 L637 969 L637 963 L638 962 L638 957 L639 956 L639 952 L640 951 L640 947 L641 946 L641 942 L642 941 L642 938 L643 937 L643 933 L644 932 L644 929 L645 928 L645 925 L646 924 L646 922 L647 921 L647 918 L648 917 L648 915 L649 914 L649 911 L650 910 L650 908 L651 907 L651 905 L652 904 L652 902 L653 901 L653 899 L654 898 L654 896 L655 895 L655 893 L656 892 L656 891 L657 890 L657 888 L658 887 L658 885 L659 884 L659 883 L660 882 L660 880 L661 879 L661 878 L662 877 L662 875 L663 874 L663 873 L664 872 L664 871 L665 870 L665 868 L666 867 L666 866 L667 865 L667 864 L668 863 L668 862 L669 861 L669 859 L670 858 L670 857 L671 856 L671 855 L672 854 L672 853 L673 852 L673 851 L674 850 L674 849 L675 848 L675 847 L676 846 L676 845 L677 844 L677 843 L678 842 L678 841 L679 840 L679 839 L680 838 L680 837 L681 836 L681 835 L682 834 L682 833 L684 831 L684 830 L685 829 L685 828 L686 827 L686 826 L688 824 L688 823 L689 822 L689 821 L691 819 L691 818 L693 816 L693 815 L694 814 L694 813 L696 811 L696 810 L698 808 L698 807 L700 805 L700 804 L702 802 L702 801 L705 798 L705 797 L708 794 L708 793 L711 790 L711 789 L715 785 L715 784 L719 780 L719 779 L724 774 L724 773 L729 768 L729 767 L733 763 L733 762 L762 733 L763 733 L767 729 L768 729 L773 724 L774 724 L779 719 L780 719 L784 715 L785 715 L789 711 L790 711 L793 708 L794 708 L797 705 L798 705 L801 702 L802 702 L804 700 L805 700 L807 698 L808 698 L810 696 L811 696 L813 694 L814 694 L815 693 L816 693 L818 691 L819 691 L821 689 L822 689 L823 688 L824 688 L826 686 L827 686 L828 685 L829 685 L830 684 L831 684 L833 682 L834 682 L835 681 L836 681 L837 680 L838 680 L839 679 L840 679 L841 678 L842 678 L843 677 L844 677 L845 676 L846 676 L847 675 L848 675 L849 674 L850 674 L851 673 L852 673 L853 672 L854 672 L855 671 L856 671 L857 670 L858 670 L859 669 L861 669 L862 668 L863 668 L864 667 L865 667 L866 666 L867 666 L868 665 L870 665 L871 664 L872 664 L873 663 L874 663 L875 662 L877 662 L878 661 L879 661 L880 660 L882 660 L883 659 L884 659 L885 658 L887 658 L888 657 L890 657 L891 656 L892 656 L893 655 L895 655 L896 654 L898 654 L899 653 L901 653 L902 652 L904 652 L905 651 L907 651 L908 650 L910 650 L911 649 L913 649 L914 648 L917 648 L918 647 L921 647 L922 646 L924 646 L925 645 L928 645 L929 644 L932 644 L933 643 L937 643 L938 642 L941 642 L942 641 L946 641 L947 640 L951 640 L952 639 L956 639 L957 638 L962 638 L963 637 L969 637 L970 636 L977 636 L978 635 L986 635 L987 634 Z"/> "/>
    </g>
</svg>